<?xml version="1.0" encoding="UTF-8"?>
<svg width="32px" height="14px" viewBox="0 0 32 14" version="1.1" xmlns="http://www.w3.org/2000/svg" xmlns:xlink="http://www.w3.org/1999/xlink">
    <!-- Generator: Sketch 39.1 (31720) - http://www.bohemiancoding.com/sketch -->
    <title>Artboard</title>
    <desc>Created with Sketch.</desc>
    <defs></defs>
    <g id="Page-1" stroke="none" stroke-width="1" fill="none" fill-rule="evenodd">
        <g id="Artboard" stroke="#5C9DD5">
            <g id="Group" transform="translate(2.000000, 2.000000)">
                <path d="M5.68921522,9.7826087 L3.1032083,7.49490541 C3.1032083,7.49490541 0,5.17076772 0,3.33106907 C0,1.49137042 1.27509671,0 3.1032083,0 C4.14962875,0 5.0826391,0.488643979 5.68921522,1.2515576 C6.29579134,0.488643979 7.22880169,0 8.27522214,0 C10.1033337,0 11.3784304,1.49137042 11.3784304,3.33106907 C11.3784304,5.17076772 8.27522214,7.49490541 8.27522214,7.49490541 L5.68921522,9.7826087 Z" id="Combined-Shape" fill="#5C9DD5"></path>
                <path d="M21.6892152,9.7826087 L19.1032083,7.49490541 C19.1032083,7.49490541 16,5.17076772 16,3.33106907 C16,1.49137042 17.2750967,0 19.1032083,0 C20.1496287,0 21.0826391,0.488643979 21.6892152,1.2515576 C22.2957913,0.488643979 23.2288017,0 24.2752221,0 C26.1033337,0 27.3784304,1.49137042 27.3784304,3.33106907 C27.3784304,5.17076772 24.2752221,7.49490541 24.2752221,7.49490541 L21.6892152,9.7826087 Z" id="Combined-Shape-Copy"></path>
            </g>
        </g>
    </g>
</svg>